<svg xmlns="http://www.w3.org/2000/svg" width="75.033" height="75.031" viewBox="0 0 75.033 75.031">
  <path id="Icon_awesome-linkedin-in" data-name="Icon awesome-linkedin-in" d="M16.8,75.032H1.239V24.937H16.8ZM9.009,18.1A9.052,9.052,0,1,1,18.018,9.01,9.085,9.085,0,0,1,9.009,18.1ZM75.016,75.032H59.494V50.646c0-5.812-.117-13.265-8.088-13.265-8.088,0-9.327,6.314-9.327,12.846v24.8H26.54V24.937H41.459v6.833h.218c2.077-3.936,7.15-8.089,14.719-8.089,15.744,0,18.638,10.367,18.638,23.833V75.032Z" transform="translate(0 -0.001)" fill="#fff"/>
</svg>
